<?xml version="1.0" encoding="iso-8859-1"?>
<!-- Generator: Adobe Illustrator 19.0.0, SVG Export Plug-In . SVG Version: 6.00 Build 0)  -->
<svg version="1.1" id="Capa_1" xmlns="http://www.w3.org/2000/svg" xmlns:xlink="http://www.w3.org/1999/xlink" x="0px" y="0px"
	 viewBox="0 0 297 297" style="enable-background:new 0 0 297 297;" xml:space="preserve">
<g>
	<polygon points="88.57,41 84.496,54 92.758,54 88.706,41 	"/>
	<path d="M255.5,20c0-11.046-8.954-20-20-20h-174c-11.046,0-20,8.954-20,20v257c0,11.046,8.954,20,20,20h174
		c11.046,0,20-8.954,20-20V20z M94.379,59H82.875l-2.229,7h-6.641l11.278-33h6.731l11.232,33h-6.641L94.379,59z M179.826,182.298
		c-10.133,3.238-19.307,0.113-25.128-5.942c0.457,8.457,1.704,18.841,4.947,24.645H138.02c3.243-5.804,4.49-16.188,4.947-24.645
		c-5.821,6.056-14.996,9.181-25.128,5.942c-17.925-5.729-36.695-44.207,30.993-87.401
		C216.522,138.091,197.752,176.568,179.826,182.298z M217.107,264l-2.229-7h-11.504l-2.229,7h-6.641l11.278-33h6.731l11.232,33
		H217.107z"/>
	<polygon points="209.07,239 204.996,252 213.258,252 209.206,239 	"/>
</g>
<g>
</g>
<g>
</g>
<g>
</g>
<g>
</g>
<g>
</g>
<g>
</g>
<g>
</g>
<g>
</g>
<g>
</g>
<g>
</g>
<g>
</g>
<g>
</g>
<g>
</g>
<g>
</g>
<g>
</g>
</svg>
